<svg width="30" height="29" viewBox="0 0 30 29" fill="none" xmlns="http://www.w3.org/2000/svg">
<path d="M5.61458 21.3917C6.85417 20.4708 8.23958 19.7448 9.77083 19.2135C11.3021 18.6823 12.9062 18.4167 14.5833 18.4167C16.2604 18.4167 17.8646 18.6823 19.3958 19.2135C20.9271 19.7448 22.3125 20.4708 23.5521 21.3917C24.4028 20.4236 25.0651 19.3257 25.5391 18.0979C26.013 16.8701 26.25 15.5597 26.25 14.1667C26.25 11.0264 25.1137 8.35243 22.8411 6.14479C20.5686 3.93715 17.816 2.83333 14.5833 2.83333C11.3507 2.83333 8.59809 3.93715 6.32552 6.14479C4.05295 8.35243 2.91667 11.0264 2.91667 14.1667C2.91667 15.5597 3.15365 16.8701 3.6276 18.0979C4.10156 19.3257 4.76389 20.4236 5.61458 21.3917ZM14.5833 15.5833C13.1493 15.5833 11.9401 15.1052 10.9557 14.149C9.97135 13.1927 9.47917 12.0181 9.47917 10.625C9.47917 9.23194 9.97135 8.05729 10.9557 7.10104C11.9401 6.14479 13.1493 5.66667 14.5833 5.66667C16.0174 5.66667 17.2266 6.14479 18.2109 7.10104C19.1953 8.05729 19.6875 9.23194 19.6875 10.625C19.6875 12.0181 19.1953 13.1927 18.2109 14.149C17.2266 15.1052 16.0174 15.5833 14.5833 15.5833ZM14.5833 28.3333C12.566 28.3333 10.6701 27.9615 8.89583 27.2177C7.12153 26.474 5.57812 25.4646 4.26562 24.1896C2.95312 22.9146 1.91406 21.4153 1.14844 19.6917C0.382812 17.9681 0 16.1264 0 14.1667C0 12.2069 0.382812 10.3653 1.14844 8.64167C1.91406 6.91806 2.95312 5.41875 4.26562 4.14375C5.57812 2.86875 7.12153 1.85938 8.89583 1.11563C10.6701 0.371875 12.566 0 14.5833 0C16.6007 0 18.4965 0.371875 20.2708 1.11563C22.0451 1.85938 23.5885 2.86875 24.901 4.14375C26.2135 5.41875 27.2526 6.91806 28.0182 8.64167C28.7839 10.3653 29.1667 12.2069 29.1667 14.1667C29.1667 16.1264 28.7839 17.9681 28.0182 19.6917C27.2526 21.4153 26.2135 22.9146 24.901 24.1896C23.5885 25.4646 22.0451 26.474 20.2708 27.2177C18.4965 27.9615 16.6007 28.3333 14.5833 28.3333ZM14.5833 25.5C15.8715 25.5 17.0868 25.317 18.2292 24.951C19.3715 24.5851 20.4167 24.0597 21.3646 23.375C20.4167 22.6903 19.3715 22.1649 18.2292 21.799C17.0868 21.433 15.8715 21.25 14.5833 21.25C13.2951 21.25 12.0799 21.433 10.9375 21.799C9.79514 22.1649 8.75 22.6903 7.80208 23.375C8.75 24.0597 9.79514 24.5851 10.9375 24.951C12.0799 25.317 13.2951 25.5 14.5833 25.5ZM14.5833 12.75C15.2153 12.75 15.7378 12.5493 16.151 12.1479C16.5642 11.7465 16.7708 11.2389 16.7708 10.625C16.7708 10.0111 16.5642 9.50347 16.151 9.10208C15.7378 8.70069 15.2153 8.5 14.5833 8.5C13.9514 8.5 13.4288 8.70069 13.0156 9.10208C12.6024 9.50347 12.3958 10.0111 12.3958 10.625C12.3958 11.2389 12.6024 11.7465 13.0156 12.1479C13.4288 12.5493 13.9514 12.75 14.5833 12.75Z" fill="#340303"/>
</svg>
