<svg width="27" height="27" viewBox="0 0 27 27" fill="none" xmlns="http://www.w3.org/2000/svg">
<path d="M9.94792 26.4167L9.43125 22.2833C9.15139 22.1757 8.88768 22.0465 8.64011 21.8958C8.39254 21.7451 8.15035 21.5837 7.91354 21.4115L4.07084 23.026L0.518753 16.8906L3.84479 14.3719C3.82327 14.2212 3.8125 14.0759 3.8125 13.9359V13.0641C3.8125 12.9241 3.82327 12.7788 3.84479 12.6281L0.518753 10.1094L4.07084 3.97396L7.91354 5.58854C8.15035 5.41632 8.39792 5.25486 8.65625 5.10417C8.91459 4.95347 9.17292 4.82431 9.43125 4.71667L9.94792 0.583336H17.0521L17.5688 4.71667C17.8486 4.82431 18.1123 4.95347 18.3599 5.10417C18.6075 5.25486 18.8497 5.41632 19.0865 5.58854L22.9292 3.97396L26.4813 10.1094L23.1552 12.6281C23.1767 12.7788 23.1875 12.9241 23.1875 13.0641V13.9359C23.1875 14.0759 23.166 14.2212 23.1229 14.3719L26.449 16.8906L22.8969 23.026L19.0865 21.4115C18.8497 21.5837 18.6021 21.7451 18.3438 21.8958C18.0854 22.0465 17.8271 22.1757 17.5688 22.2833L17.0521 26.4167H9.94792ZM12.2083 23.8333H14.7594L15.2115 20.4104C15.8788 20.2382 16.4977 19.9852 17.0682 19.6516C17.6387 19.3179 18.1608 18.9142 18.6344 18.4406L21.8313 19.7646L23.0906 17.5688L20.3135 15.4698C20.4212 15.1684 20.4965 14.8509 20.5396 14.5172C20.5826 14.1835 20.6042 13.8444 20.6042 13.5C20.6042 13.1556 20.5826 12.8165 20.5396 12.4828C20.4965 12.1491 20.4212 11.8316 20.3135 11.5302L23.0906 9.43125L21.8313 7.23542L18.6344 8.59167C18.1608 8.09653 17.6387 7.68212 17.0682 7.34844C16.4977 7.01476 15.8788 6.76181 15.2115 6.58959L14.7917 3.16667H12.2406L11.7885 6.58959C11.1212 6.76181 10.5023 7.01476 9.93177 7.34844C9.36129 7.68212 8.83924 8.08577 8.36563 8.55938L5.16875 7.23542L3.90938 9.43125L6.68646 11.4979C6.57882 11.8208 6.50348 12.1438 6.46042 12.4667C6.41736 12.7896 6.39584 13.134 6.39584 13.5C6.39584 13.8444 6.41736 14.1781 6.46042 14.501C6.50348 14.824 6.57882 15.1469 6.68646 15.4698L3.90938 17.5688L5.16875 19.7646L8.36563 18.4083C8.83924 18.9035 9.36129 19.3179 9.93177 19.6516C10.5023 19.9852 11.1212 20.2382 11.7885 20.4104L12.2083 23.8333ZM13.5646 18.0208C14.8132 18.0208 15.8788 17.5795 16.7615 16.6969C17.6441 15.8142 18.0854 14.7486 18.0854 13.5C18.0854 12.2514 17.6441 11.1858 16.7615 10.3031C15.8788 9.42049 14.8132 8.97917 13.5646 8.97917C12.2944 8.97917 11.2234 9.42049 10.3516 10.3031C9.47969 11.1858 9.04375 12.2514 9.04375 13.5C9.04375 14.7486 9.47969 15.8142 10.3516 16.6969C11.2234 17.5795 12.2944 18.0208 13.5646 18.0208Z" fill="#340303"/>
</svg>
